<?xml version="1.0" standalone="no"?>
<!DOCTYPE svg PUBLIC "-//W3C//DTD SVG 20010904//EN"
 "http://www.w3.org/TR/2001/REC-SVG-20010904/DTD/svg10.dtd">
<svg version="1.0" xmlns="http://www.w3.org/2000/svg"
 width="353.000000pt" height="404.000000pt" viewBox="0 0 353.000000 404.000000"
 preserveAspectRatio="xMidYMid meet">

<g transform="translate(0.000000,404.000000) scale(0.100000,-0.100000)"
fill="#000000" stroke="none">
<path d="M1105 4023 c-139 -19 -297 -85 -435 -181 -36 -25 -99 -66 -140 -92
-73 -45 -135 -94 -194 -155 -39 -40 -106 -144 -106 -165 0 -9 -15 -21 -37 -29
-127 -46 -174 -120 -151 -236 15 -74 45 -108 108 -122 71 -17 97 -36 105 -75
4 -18 31 -88 61 -154 30 -67 54 -126 54 -131 0 -6 19 -36 42 -69 55 -76 138
-214 138 -229 0 -6 -17 -17 -37 -24 -127 -46 -174 -120 -151 -236 15 -74 45
-108 108 -122 71 -17 97 -36 105 -75 7 -32 43 -121 91 -224 13 -28 24 -56 24
-61 0 -6 19 -37 43 -69 43 -59 130 -200 161 -262 10 -18 24 -70 32 -115 8 -45
21 -111 30 -147 11 -46 15 -118 15 -250 1 -129 5 -204 16 -248 13 -57 13 -65
-1 -87 -32 -49 -9 -83 50 -76 15 1 40 -18 84 -63 34 -35 77 -72 96 -81 19 -9
34 -20 34 -25 0 -5 -15 -39 -34 -74 -50 -93 -30 -136 64 -136 57 0 64 5 86 60
9 25 33 62 52 83 34 35 40 37 97 37 129 0 304 52 504 150 115 56 182 100 283
186 47 41 91 74 96 74 6 0 8 9 5 19 -6 24 32 111 49 111 10 0 10 2 1 8 -9 6
-9 17 2 49 8 23 19 72 25 109 6 37 13 70 15 74 5 9 -13 36 -19 29 -4 -3 -11
-32 -17 -65 -35 -204 -64 -276 -145 -363 -106 -115 -297 -222 -544 -304 -134
-44 -181 -55 -270 -59 -37 -2 -55 4 -102 35 -65 42 -68 43 -113 21 -33 -16
-34 -15 -94 25 -67 46 -124 116 -167 206 l-28 60 -1 250 c-2 220 -4 258 -22
320 -12 39 -29 97 -38 130 -27 94 -68 175 -126 247 -91 113 -209 362 -234 494
-26 134 -14 364 23 446 26 58 102 140 171 185 31 20 74 51 96 68 87 69 253
174 315 200 183 77 347 97 470 56 80 -27 128 -58 200 -130 30 -31 81 -76 113
-101 55 -43 167 -175 167 -197 0 -6 7 -16 15 -23 8 -7 15 -9 15 -5 0 11 -60
118 -77 137 -13 14 -12 24 6 83 24 76 26 108 10 154 -14 39 -87 91 -138 98
-46 6 -110 -11 -139 -37 -27 -25 -33 -25 -90 4 -72 36 -192 60 -265 52 -160
-17 -306 -71 -442 -162 -38 -26 -110 -72 -160 -104 -49 -31 -110 -75 -135 -98
-25 -23 -48 -42 -52 -42 -4 0 -30 -32 -60 -71 -52 -70 -53 -71 -67 -49 -8 12
-38 51 -66 86 -88 110 -205 360 -230 490 -26 134 -14 364 23 446 26 58 102
140 171 185 31 20 74 51 96 68 87 69 253 174 315 200 183 77 347 97 470 56 80
-27 128 -58 200 -130 30 -31 81 -76 113 -101 87 -67 189 -212 221 -312 6 -21
36 -24 36 -4 0 8 16 24 35 36 19 12 53 42 75 68 146 165 372 188 660 67 62
-26 228 -131 315 -200 22 -17 65 -48 96 -68 69 -45 145 -127 171 -185 37 -82
49 -312 23 -446 -25 -132 -143 -381 -234 -494 -58 -72 -99 -153 -126 -247 -9
-33 -26 -91 -38 -130 -18 -62 -20 -100 -22 -320 l-1 -250 -28 -60 c-43 -89
-99 -160 -166 -205 -32 -22 -64 -40 -69 -40 -6 0 -11 -4 -11 -10 0 -5 4 -10 9
-10 46 0 134 75 194 165 22 33 45 65 51 70 27 23 45 157 45 340 0 128 4 199
15 245 9 36 22 102 30 147 8 45 22 97 32 115 30 60 118 202 162 262 23 32 42
63 42 68 0 6 24 65 54 132 30 66 57 136 61 154 8 39 34 58 105 75 63 14 93 48
108 122 23 116 -24 190 -150 236 -23 8 -38 20 -38 29 0 21 -67 125 -106 165
-59 61 -121 110 -194 155 -41 26 -104 67 -140 92 -155 108 -314 169 -477 184
-81 8 -187 -13 -265 -52 -57 -29 -63 -29 -89 -5 -12 11 -41 26 -66 34 -39 13
-52 13 -90 2 -25 -8 -53 -21 -64 -31 -11 -9 -20 -15 -22 -13 -1 2 -10 14 -20
25 -17 21 -17 24 4 96 31 104 22 156 -32 199 -60 47 -115 61 -172 42 -25 -8
-54 -23 -66 -34 -26 -24 -32 -24 -84 3 -88 45 -210 65 -312 51z m585 -58 c62
-31 80 -58 80 -115 0 -50 -22 -132 -36 -137 -5 -2 -27 15 -48 37 -36 38 -38
42 -26 71 26 62 -29 112 -95 85 -31 -13 -35 -13 -54 8 -20 22 -21 23 -3 39 47
42 113 47 182 12z m-70 -76 c0 -6 -7 -8 -16 -5 -14 5 -15 4 -4 -9 8 -9 8 -15
2 -15 -15 0 -25 18 -17 30 8 14 35 13 35 -1z m357 -230 c15 -6 36 -18 46 -26
16 -16 16 -17 -4 -39 -19 -21 -23 -21 -54 -8 -44 18 -82 5 -99 -36 l-12 -30
-21 43 c-29 61 -30 60 13 84 43 25 87 29 131 12z m-32 -98 c0 -8 -7 -17 -15
-19 -13 -5 -13 -3 -1 12 12 14 12 16 -3 10 -9 -3 -16 -1 -16 6 0 6 8 10 18 8
9 -2 17 -10 17 -17z m-1720 -181 c3 -5 3 -32 -1 -59 -5 -36 -12 -52 -28 -61
-12 -6 -28 -20 -35 -31 -11 -18 -8 -25 25 -56 31 -29 38 -43 42 -85 5 -56 6
-56 -74 -22 -63 27 -100 103 -83 172 18 69 31 90 67 115 53 36 77 43 87 27z
m3167 -347 c36 -25 49 -46 67 -115 17 -69 -20 -145 -83 -172 -80 -34 -79 -34
-74 22 4 42 11 56 42 85 33 31 36 38 25 56 -7 11 -23 25 -35 31 -16 9 -23 25
-28 61 -4 27 -4 54 -1 60 9 13 42 3 87 -28z m-1382 -108 c62 -31 80 -58 80
-115 0 -50 -22 -132 -36 -137 -5 -2 -27 15 -48 37 -36 38 -38 42 -26 71 26 62
-29 112 -95 85 -31 -13 -35 -13 -54 8 -20 22 -21 23 -3 39 47 42 113 47 182
12z m-70 -76 c0 -6 -7 -8 -16 -5 -14 5 -15 4 -4 -9 8 -9 8 -15 2 -15 -15 0
-25 18 -17 30 8 14 35 13 35 -1z m-1395 -509 c3 -5 3 -32 -1 -59 -5 -36 -12
-52 -28 -61 -12 -6 -28 -20 -35 -31 -11 -18 -8 -25 25 -56 31 -29 38 -43 42
-85 5 -56 6 -56 -74 -22 -63 27 -100 103 -83 172 18 69 31 90 67 115 53 36 77
43 87 27z m501 -1925 c-1 -5 -15 -11 -29 -13 -35 -4 -46 22 -21 49 l18 20 18
-23 c10 -13 16 -27 14 -33z m334 -180 c22 -14 40 -30 40 -36 0 -6 -11 -25 -24
-42 -13 -18 -33 -51 -44 -73 -32 -64 -69 -72 -95 -22 l-18 33 5 -32 c7 -40
-18 -47 -35 -10 -11 24 -7 36 49 145 38 72 57 78 122 37z"/>
<path d="M1137 3979 c-54 -13 -97 -36 -140 -78 -47 -44 -65 -76 -77 -140 -18
-96 26 -194 122 -266 51 -39 54 -40 133 -40 71 0 90 4 136 29 127 67 175 184
134 323 -20 68 -82 131 -158 161 -61 23 -89 25 -150 11z m108 -24 c86 -15 138
-57 173 -142 43 -102 22 -205 -56 -275 -96 -86 -248 -89 -339 -5 -52 48 -67
74 -81 142 -21 101 30 201 127 251 61 31 98 43 121 39 8 -2 33 -6 55 -10z"/>
<path d="M1305 3829 c-31 -18 -45 -40 -45 -73 0 -37 7 -49 37 -65 32 -16 68
-14 93 7 27 22 33 93 10 117 -21 20 -71 28 -95 14z m95 -74 c0 -8 -9 -15 -20
-15 -11 0 -20 7 -20 15 0 8 9 15 20 15 11 0 20 -7 20 -15z"/>
<path d="M567 3678 c-90 -19 -173 -86 -203 -164 -23 -60 -16 -156 17 -220 30
-59 117 -122 178 -130 44 -5 155 17 201 41 38 19 97 97 112 147 8 29 8 54 -1
106 -27 149 -165 250 -304 220z m185 -53 c49 -34 98 -122 106 -190 14 -126
-89 -238 -231 -252 -77 -7 -112 4 -175 55 -61 48 -82 96 -82 182 0 84 12 111
75 169 66 60 96 72 187 69 66 -3 82 -7 120 -33z"/>
<path d="M701 3538 c-27 -17 -31 -26 -31 -63 0 -34 5 -47 22 -59 29 -20 77
-20 106 0 19 13 23 23 20 62 -2 31 -7 46 -15 45 -7 -2 -12 2 -10 9 4 22 -59
27 -92 6z m102 -55 c9 -9 -13 -34 -24 -27 -14 8 -11 34 4 34 8 0 17 -3 20 -7z"/>
<path d="M2240 3648 c-73 -31 -135 -95 -155 -161 -41 -139 7 -256 134 -323 46
-25 65 -29 136 -29 79 0 82 1 133 40 96 72 140 170 122 266 -12 63 -30 96 -77
141 -80 78 -199 104 -293 66z m216 -41 c103 -52 154 -149 132 -252 -14 -68
-29 -94 -81 -142 -43 -40 -106 -63 -171 -63 -49 0 -128 32 -168 68 -78 70 -99
173 -56 275 36 88 77 121 178 143 67 14 87 11 166 -29z"/>
<path d="M2152 3510 c-28 -12 -43 -51 -35 -90 10 -52 66 -75 116 -49 29 16 37
28 37 61 0 40 -10 57 -41 73 -32 17 -44 18 -77 5z m18 -75 c0 -8 -9 -15 -20
-15 -11 0 -20 7 -20 15 0 8 9 15 20 15 11 0 20 -7 20 -15z"/>
<path d="M964 3420 c-51 -22 -86 -65 -82 -100 1 -15 -7 -38 -20 -54 -61 -78
11 -176 104 -143 19 7 23 2 33 -40 15 -57 36 -83 67 -83 21 0 43 8 141 53 36
16 38 44 5 108 l-29 60 26 14 c43 22 56 55 38 98 -18 43 -48 60 -105 62 -28 1
-50 9 -65 23 -28 26 -58 27 -113 2z m240 -71 c15 -12 26 -30 26 -44 0 -31 -44
-65 -85 -65 -51 0 -117 -28 -155 -65 -49 -47 -84 -54 -105 -21 -22 33 -22 69
-2 100 12 18 28 25 71 30 45 6 63 15 98 46 35 32 51 39 84 40 27 0 50 -7 68
-21z m-37 -151 c30 -34 55 -86 51 -111 -4 -29 -56 -37 -75 -11 -12 16 -13 15
-13 -14 0 -36 -28 -57 -64 -48 -24 6 -51 54 -61 109 -6 29 -3 37 20 56 15 11
31 21 36 21 4 0 17 -20 27 -44 11 -24 26 -47 33 -52 7 -4 3 9 -9 30 -34 58
-28 79 24 85 6 0 20 -9 31 -21z"/>
<path d="M2869 3362 c-45 -5 -131 -64 -166 -113 -46 -65 -64 -168 -39 -232 9
-25 36 -66 59 -90 49 -53 125 -80 222 -81 54 -1 66 3 120 39 43 29 66 53 84
89 33 64 40 160 17 220 -41 107 -175 183 -297 168z m136 -36 c41 -18 121 -90
141 -127 22 -43 18 -161 -6 -209 -22 -43 -87 -100 -138 -120 -49 -19 -154 -7
-207 25 -79 46 -125 120 -125 202 0 18 12 62 26 98 27 67 63 107 119 131 40
18 147 17 190 0z"/>
<path d="M2765 3230 c-16 -3 -29 -11 -27 -18 1 -7 -4 -11 -10 -9 -9 1 -14 -14
-16 -45 -3 -39 1 -49 20 -62 29 -20 77 -20 106 0 19 13 23 23 20 60 -3 38 -8
48 -33 63 -20 12 -40 16 -60 11z m-5 -73 c0 -8 -3 -17 -7 -20 -9 -9 -34 13
-27 24 8 14 34 11 34 -4z"/>
<path d="M2453 3098 c-15 -14 -35 -22 -65 -23 -57 -2 -84 -18 -106 -63 -23
-47 -14 -73 33 -95 l32 -15 -29 -60 c-33 -65 -31 -93 5 -109 98 -45 120 -53
141 -53 31 0 52 26 67 83 10 42 14 47 33 40 93 -33 165 65 104 143 -13 16 -21
39 -20 54 4 36 -32 78 -85 101 -58 25 -84 24 -110 -3z m24 -87 c36 -32 55 -41
99 -47 43 -5 59 -12 71 -30 20 -31 20 -67 -2 -100 -21 -33 -56 -26 -105 21
-38 37 -104 65 -155 65 -41 0 -85 34 -85 65 0 34 44 65 92 65 32 0 49 -8 85
-39z m-59 -117 c28 -8 28 -32 0 -80 -12 -21 -16 -34 -9 -30 7 5 22 28 33 52
10 24 23 44 27 44 5 0 21 -10 36 -21 23 -19 26 -27 20 -56 -10 -55 -37 -103
-61 -109 -36 -9 -64 12 -64 48 0 29 -1 30 -13 14 -19 -26 -71 -18 -75 11 -4
25 21 77 51 111 23 24 22 24 55 16z"/>
<path d="M1457 2939 c-54 -13 -97 -36 -140 -78 -47 -44 -65 -76 -77 -140 -18
-96 26 -194 122 -266 51 -39 54 -40 133 -40 71 0 90 4 136 29 127 67 175 184
134 323 -20 68 -82 131 -158 161 -61 23 -89 25 -150 11z m108 -24 c86 -15 138
-57 173 -142 43 -102 22 -205 -56 -275 -96 -86 -248 -89 -339 -5 -52 48 -67
74 -81 142 -21 101 30 201 127 251 61 31 98 43 121 39 8 -2 33 -6 55 -10z"/>
<path d="M1625 2789 c-31 -18 -45 -40 -45 -73 0 -37 7 -49 37 -65 32 -16 68
-14 93 7 27 22 33 93 10 117 -21 20 -71 28 -95 14z m95 -74 c0 -8 -9 -15 -20
-15 -11 0 -20 7 -20 15 0 8 9 15 20 15 11 0 20 -7 20 -15z"/>
<path d="M887 2638 c-90 -19 -173 -86 -203 -164 -23 -60 -16 -156 17 -220 30
-59 117 -122 178 -130 44 -5 155 17 201 41 38 19 97 97 112 147 8 29 8 54 -1
106 -27 149 -165 250 -304 220z m185 -53 c49 -34 98 -122 106 -190 14 -126
-89 -238 -231 -252 -77 -7 -112 4 -175 55 -61 48 -82 96 -82 182 0 84 12 111
75 169 66 60 96 72 187 69 66 -3 82 -7 120 -33z"/>
<path d="M1021 2498 c-27 -17 -31 -26 -31 -63 0 -34 5 -47 22 -59 29 -20 77
-20 106 0 19 13 23 23 20 62 -2 31 -7 46 -15 45 -7 -2 -12 2 -10 9 4 22 -59
27 -92 6z m102 -55 c9 -9 -13 -34 -24 -27 -14 8 -11 34 4 34 8 0 17 -3 20 -7z"/>
<path d="M1284 2380 c-51 -22 -86 -65 -82 -100 1 -15 -7 -38 -20 -54 -61 -78
11 -176 104 -143 19 7 23 2 33 -40 15 -57 36 -83 67 -83 21 0 43 8 141 53 36
16 38 44 5 108 l-29 60 26 14 c43 22 56 55 38 98 -18 43 -48 60 -105 62 -28 1
-50 9 -65 23 -28 26 -58 27 -113 2z m240 -71 c15 -12 26 -30 26 -44 0 -31 -44
-65 -85 -65 -51 0 -117 -28 -155 -65 -49 -47 -84 -54 -105 -21 -22 33 -22 69
-2 100 12 18 28 25 71 30 45 6 63 15 98 46 35 32 51 39 84 40 27 0 50 -7 68
-21z m-37 -151 c30 -34 55 -86 51 -111 -4 -29 -56 -37 -75 -11 -12 16 -13 15
-13 -14 0 -36 -28 -57 -64 -48 -24 6 -51 54 -61 109 -6 29 -3 37 20 56 15 11
31 21 36 21 4 0 17 -20 27 -44 11 -24 26 -47 33 -52 7 -4 3 9 -9 30 -34 58
-28 79 24 85 6 0 20 -9 31 -21z"/>
<path d="M2495 716 c43 -20 75 -53 74 -79 0 -12 -3 -16 -6 -9 -10 25 -22 11
-16 -21 4 -25 0 -37 -17 -52 l-22 -20 -28 33 c-15 19 -35 32 -44 30 -11 -2 -4
-13 25 -36 44 -38 65 -36 104 6 37 40 33 77 -14 123 -24 24 -48 39 -62 39 -22
-1 -22 -2 6 -14z"/>
</g>
</svg>
